<?xml version="1.0" encoding="utf-8"?>
<!-- Generator: Adobe Illustrator 21.0.0, SVG Export Plug-In . SVG Version: 6.00 Build 0)  -->
<svg version="1.1" id="Capa_1" xmlns="http://www.w3.org/2000/svg" xmlns:xlink="http://www.w3.org/1999/xlink" x="0px" y="0px"
	 viewBox="0 0 99 110" style="enable-background:new 0 0 99 110;" xml:space="preserve">
<style type="text/css">
	.st0{fill:#F09819;}
	.st1{fill:#FF512F;}
	.st2{fill:none;}
</style>
<g>
	<path class="st0" d="M12.6,97.5c5.3,8.3,15.9,11.8,36.9,11.8s31.6-3.6,36.9-11.8H12.6z"/>
	<g>
		<polygon class="st1" points="49.5,36.3 39.8,26.6 59.2,26.6 		"/>
		<polygon class="st0" points="49.5,16.8 49.5,26.6 39.8,26.6 		"/>
		<polygon class="st0" points="59.2,26.6 49.5,26.6 49.5,16.8 		"/>
	</g>
	<g>
		<path class="st0" d="M79,3.4c0-1.6-1.1-2.7-2.7-2.7h-7.5c-1.6,0-2.6,1.1-2.6,2.7v0.3C71,5.3,75.3,7.8,79,11.2V3.4z"/>
		<path class="st0" d="M31.1,4.2V3.4c0-1.6-1.1-2.7-2.7-2.7h-7.5c-1.6,0-2.6,1.1-2.6,2.7v9.5C21.9,9,26.3,6.1,31.1,4.2z"/>
		<path class="st2" d="M49.5,56.8c-15.1,0-26.8-5.1-34.4-14.6c-0.1,1.5-0.1,3-0.1,4.6v16.9c0,10.6,0.2,20,2.4,26.3h64.3
			c2.2-6.2,2.4-15.7,2.4-26.3V46.7c0-1.5,0-3-0.1-4.5C76.3,51.7,64.6,56.8,49.5,56.8z"/>
		<path class="st1" d="M91.6,55v-8.3c0-7.2-0.9-13.4-2.5-18.8c-0.6-2-1.3-3.9-2.2-5.7c-2.1-4.5-4.8-8.1-8-11.1
			c-3.7-3.4-8-5.9-12.8-7.6C61.1,1.9,55.5,1,49.5,1c-6.6,0-12.8,1-18.4,3.2c-4.9,1.9-9.2,4.7-12.8,8.6c-2.5,2.7-4.6,5.8-6.3,9.5
			c-0.8,1.8-1.6,3.7-2.2,5.7c-1.6,5.3-2.5,11.6-2.5,18.8V55H0.2v17.2c0,1.6,1.3,2.8,2.8,2.8h4.5c0.4,9.7,1.6,17.1,5.1,22.5h73.8
			c3.4-5.4,4.7-12.8,5.1-22.5H96c1.6,0,2.8-1.3,2.8-2.8V55H91.6z M9.2,71.3H7.4H4V58.8h3.4h1.8V71.3z M17.2,30.2
			c0.5-1.6,1.1-3.2,1.8-4.7c1.1-2.4,2.5-4.6,4.1-6.5c2.2-2.6,4.9-4.8,8.1-6.4c5-2.6,11.1-3.9,18.4-3.9c6.5,0,12,1,16.7,3.1
			c3.9,1.7,7.1,4.1,9.7,7.2c1.6,1.9,3,4.1,4.1,6.5c0.7,1.5,1.3,3.1,1.8,4.7c0.1,0.2,0.1,0.4,0.2,0.6C75,45.4,61,48.8,49.5,48.8
			C38,48.8,24,45.4,17,30.8C17.1,30.6,17.1,30.4,17.2,30.2z M84,63.7c0,10.6-0.2,20-2.4,26.3H17.4C15.2,83.7,15,74.2,15,63.7V46.7
			c0-1.6,0-3.1,0.1-4.6c7.5,9.5,19.3,14.6,34.4,14.6c15.1,0,26.8-5.1,34.4-14.6c0.1,1.5,0.1,3,0.1,4.5V63.7z M95,71.3h-3.4h-1.7
			V58.8h1.8H95V71.3z"/>
	</g>
	<path class="st0" d="M69.3,68.8c0-2.2-1.6-3.6-3.8-3.6H33.7c-2.2,0-4,1.4-4,3.6v2.3c12.9,0,26.3,0,39.6,0V68.8z"/>
	<g>
		<path class="st1" d="M65.5,74.9v7.7H33.7c-0.1,0-0.2,0-0.2,0v-7.7H65.5 M69.3,71.1c-13.3,0-26.7,0-39.6,0v11.5
			c0,2.2,1.8,3.8,4,3.8h31.8c2.2,0,3.8-1.6,3.8-3.8V71.1L69.3,71.1z"/>
	</g>
	<path class="st0" d="M13,53.3c0-3.5-2.9-6.4-6.4-6.4s-6.4,2.9-6.4,6.4V55H13V53.3z"/>
	<path class="st0" d="M98.8,53.3c0-3.5-2.9-6.4-6.4-6.4c-3.5,0-6.4,2.9-6.4,6.4V55h12.8V53.3z"/>
</g>
</svg>
