<?xml version="1.0" encoding="utf-8"?>
<!-- Generator: Adobe Illustrator 21.0.0, SVG Export Plug-In . SVG Version: 6.00 Build 0)  -->
<svg version="1.1" id="Capa_1" xmlns="http://www.w3.org/2000/svg" xmlns:xlink="http://www.w3.org/1999/xlink" x="0px" y="0px"
	 viewBox="0 0 1024 140" style="enable-background:new 0 0 1024 140;" xml:space="preserve">
<style type="text/css">
	.st0{fill:#FFFFFF;}
</style>
<g>
	<g>
		<path class="st0" d="M102.6,29.8l-36.7,51c-0.8,1.3-2.1,1.8-3.3,1.8h-0.3c-1.5,0-2.6-0.5-3.4-1.8L22,30v94.3
			c0,2.1-1.8,3.9-3.9,3.9c-2.3,0-4.1-1.8-4.1-3.9V18c0-1.3,0.7-2.5,1.6-3.1c0-0.2,0.2-0.2,0.3-0.3c1.8-1.1,4.3-0.8,5.6,1l40.8,56.6
			L103,15.6c1.1-1.8,3.8-2.1,5.6-1c0.5,0.5,0.8,0.8,1.1,1.3c0.3,0.7,0.7,1.5,0.7,2.1v106.3c0,2.1-1.8,3.9-3.9,3.9
			c-2.3,0-3.9-1.8-3.9-3.9C102.6,124.3,102.6,29.8,102.6,29.8z"/>
		<path class="st0" d="M342.3,11.8c14.1,0,27.1,4.9,37.1,12.6c1.8,1.5,2.1,4.3,0.7,5.7c-1.3,2-3.9,2.1-5.6,0.8
			c-8.9-6.9-20-11.2-32.1-11.2c-28.7,0-51.7,22.5-51.7,50.5c0,27.4,23,49.9,51.7,49.9c12.1,0,23.3-3.9,31.8-11.2c2-1.3,4.6-1,5.7,1
			c1.6,1.5,1.3,4.4-0.5,5.7c-10,7.7-23,12.5-37.1,12.5c-33,0-59.7-25.9-59.7-57.9C282.6,37.7,309.4,11.9,342.3,11.8z"/>
		<path class="st0" d="M485.3,74.8h-59v49.5c0,2.1-1.8,3.9-4.1,3.9c-2.1,0-3.9-1.8-3.9-3.9V17.4c0-2.1,1.8-3.9,3.9-3.9
			c2.3,0,4.1,1.8,4.1,3.9v49.5h59V17.4c0-2.1,1.8-3.9,3.9-3.9c2.3,0,4.1,1.8,4.1,3.9v106.9c0,2.1-1.8,3.9-4.1,3.9
			c-2.1,0-3.9-1.8-3.9-3.9V74.8z"/>
		<path class="st0" d="M531.6,17.4c0-2.1,1.8-3.9,3.9-3.9c2.3,0,4.1,1.8,4.1,3.9v106.9c0,2.1-1.8,3.9-4.1,3.9
			c-2.1,0-3.9-1.8-3.9-3.9V17.4z"/>
		<path class="st0" d="M588.8,128.2h-0.3c-2.1,0-3.9-1.8-3.9-3.9V17.4c0-2.1,1.8-3.9,3.9-3.9c2.3,0,4.1,1.8,4.1,3.9v102.8h54.9
			c2.3,0,4.1,1.8,4.1,4.1c0,2.1-1.8,3.9-4.1,3.9H588.8z"/>
		<path class="st0" d="M681,17.4c0-2.1,1.8-3.9,3.9-3.9h0.3H744c2.3,0,3.9,1.8,3.9,3.9c0,2.3-1.6,4.1-3.9,4.1h-55v45.4h48.1
			c2.1,0,3.9,1.8,3.9,4.1c0,2.1-1.8,3.9-3.9,3.9H689v45.3h55c2.3,0,3.9,1.8,3.9,4.1c0,2.1-1.6,3.9-3.9,3.9h-58.5H685h-0.3
			c-2-0.2-3.6-1.8-3.6-3.9V17.4H681z"/>
		<path class="st0" d="M790.7,30.3v94c0,2.1-1.8,3.9-3.9,3.9s-3.9-1.8-3.9-3.9V19c-0.5-1.6,0-3.3,1.5-4.4c1.8-1.1,4.4-0.8,5.6,1
			l69.5,96.4V18.5c0-2.1,1.8-3.9,3.9-3.9c2.3,0,4.1,1.8,4.1,3.9v105.8c0,2.1-1.8,3.9-4.1,3.9c-1.3,0-2.3-0.5-3.1-1.5
			c-0.2-0.2-0.5-0.3-0.7-0.7L790.7,30.3z"/>
		<path class="st0" d="M955.1,11.8c30.7,0,54.8,26.1,54.9,58.2c-0.2,32.1-24.3,58.2-54.9,58.2c-31,0-55.3-26.1-55.4-58.2
			C899.8,37.9,924.1,11.8,955.1,11.8z M955.1,120.2c25.3,0,46.6-22.1,46.7-50.2c-0.2-28.4-21.5-50-46.7-50
			c-26.1,0-47.4,21.6-47.4,50C907.7,98,929,120.2,955.1,120.2z"/>
	</g>
	<g>
		<path class="st0" d="M163.4,112.2c5.3,8.3,15.9,11.8,36.9,11.8s31.6-3.6,36.9-11.8H163.4z"/>
		<g>
			<polygon class="st0" points="200.3,51 190.6,41.3 210,41.3 			"/>
			<polygon class="st0" points="200.3,31.5 200.3,41.3 190.6,41.3 			"/>
			<polygon class="st0" points="210,41.3 200.3,41.3 200.3,31.5 			"/>
		</g>
		<g>
			<path class="st0" d="M229.8,18.1c0-1.6-1.1-2.7-2.7-2.7h-7.5c-1.6,0-2.6,1.1-2.6,2.7v0.3c4.8,1.7,9.1,4.1,12.8,7.6V18.1z"/>
			<path class="st0" d="M181.9,18.9v-0.9c0-1.6-1.1-2.7-2.7-2.7h-7.5c-1.6,0-2.6,1.1-2.6,2.7v9.5C172.7,23.7,177.1,20.8,181.9,18.9z
				"/>
			<path class="st0" d="M242.4,69.7v-8.3c0-7.2-0.9-13.4-2.5-18.8c-0.6-2-1.3-3.9-2.2-5.7c-2.1-4.5-4.8-8.1-8-11.1
				c-3.7-3.4-8-5.9-12.8-7.6c-5.1-1.8-10.7-2.6-16.7-2.6c-6.6,0-12.8,1-18.4,3.2c-4.9,1.9-9.2,4.7-12.8,8.6
				c-2.5,2.7-4.6,5.8-6.3,9.5c-0.8,1.8-1.6,3.7-2.2,5.7c-1.6,5.3-2.5,11.6-2.5,18.8v8.3H151v17.2c0,1.6,1.3,2.8,2.8,2.8h4.5
				c0.4,9.7,1.6,17.1,5.1,22.5h73.8c3.4-5.4,4.7-12.8,5.1-22.5h4.5c1.6,0,2.8-1.3,2.8-2.8V69.7H242.4z M160,86h-1.7h-3.4V73.5h3.4
				h1.8V86z M168,44.9c0.5-1.6,1.1-3.2,1.8-4.7c1.1-2.4,2.5-4.6,4.1-6.5c2.2-2.6,4.9-4.8,8.1-6.4c5-2.6,11.1-3.9,18.4-3.9
				c6.5,0,12,1,16.7,3.1c3.9,1.7,7.1,4.1,9.7,7.2c1.6,1.9,3,4.1,4.1,6.5c0.7,1.5,1.3,3.1,1.8,4.7c0.1,0.2,0.1,0.4,0.2,0.6
				c-7,14.6-21.1,17.9-32.5,17.9c-11.5,0-25.5-3.4-32.5-18C167.9,45.3,167.9,45.1,168,44.9z M234.8,78.4c0,10.6-0.2,20-2.4,26.3
				h-64.3c-2.2-6.2-2.4-15.7-2.4-26.3V61.4c0-1.6,0-3.1,0.1-4.6c7.5,9.5,19.3,14.6,34.4,14.6c15.1,0,26.8-5.1,34.4-14.6
				c0.1,1.5,0.1,3,0.1,4.5V78.4z M245.8,86h-3.4h-1.7V73.5h1.8h3.4V86z"/>
		</g>
		<path class="st0" d="M220.1,83.5c0-2.2-1.6-3.6-3.8-3.6h-31.8c-2.2,0-4,1.4-4,3.6v2.3c12.9,0,26.3,0,39.6,0V83.5z"/>
		<g>
			<path class="st0" d="M216.3,89.6v7.7h-31.8c-0.1,0-0.2,0-0.2,0v-7.7H216.3 M220.1,85.8c-13.3,0-26.7,0-39.6,0v11.5
				c0,2.2,1.8,3.8,4,3.8h31.8c2.2,0,3.8-1.6,3.8-3.8V85.8L220.1,85.8z"/>
		</g>
		<path class="st0" d="M163.8,68c0-3.5-2.9-6.4-6.4-6.4c-3.5,0-6.4,2.9-6.4,6.4v1.8h12.8V68z"/>
		<path class="st0" d="M249.6,68c0-3.5-2.9-6.4-6.4-6.4c-3.5,0-6.4,2.9-6.4,6.4v1.8h12.8V68z"/>
	</g>
</g>
</svg>
